<svg width="96" height="96" viewBox="0 0 96 96" fill="none" xmlns="http://www.w3.org/2000/svg">
<g clip-path="url(#clip0_3221_4458)">
<path fill-rule="evenodd" clip-rule="evenodd" d="M77.85 31.9496C72.69 29.0096 55.95 19.4396 50.85 16.5296C49.08 15.5096 46.92 15.5096 45.18 16.5296C40.08 19.4396 23.31 29.0096 18.18 31.9496C16.41 32.9696 15.3 34.8596 15.3 36.8996V40.7096C15.3 42.2396 15.9 43.6796 16.98 44.7596C18.06 45.8097 19.5 46.4096 21 46.4096H75C76.53 46.4096 77.97 45.8097 79.05 44.7596C80.1 43.6796 80.7 42.2396 80.7 40.7096V36.8996C80.7 34.8596 79.62 32.9696 77.85 31.9496Z" fill="#D1D5DB"/>
<path fill-rule="evenodd" clip-rule="evenodd" d="M77.8513 31.9487C72.6913 29.0087 55.9513 19.4387 50.8513 16.5287C49.0813 15.5087 46.9213 15.5087 45.1813 16.5287C40.0813 19.4387 23.3113 29.0087 18.1813 31.9487C16.4113 32.9687 15.3013 34.8587 15.3013 36.8987V40.7087C15.3013 42.2387 15.9013 43.6787 16.9813 44.7587C18.0613 45.8087 19.5013 46.4087 21.0013 46.4087H75.0013C76.5313 46.4087 77.9713 45.8087 79.0513 44.7587C80.1013 43.6787 80.7013 42.2387 80.7013 40.7087V36.8987C80.7013 34.8587 79.6213 32.9687 77.8513 31.9487ZM75.3013 40.7087C75.3013 40.7087 75.3013 40.8887 75.2113 40.9487C75.1513 40.9787 75.0913 41.0087 75.0013 41.0087H21.0013C21.0013 41.0087 20.8513 40.9787 20.7913 40.9487C20.7313 40.8887 20.7013 40.7987 20.7013 40.7087V36.8987C20.7013 36.8987 20.7613 36.6887 20.8513 36.6287C26.0113 33.6887 42.7513 24.1187 47.8513 21.2087C47.9413 21.1487 48.0613 21.1487 48.1513 21.2087C53.2513 24.1187 70.0213 33.6887 75.1513 36.6287C75.2413 36.6887 75.3013 36.7787 75.3013 36.8987V40.7087Z" fill="#272C34"/>
<path fill-rule="evenodd" clip-rule="evenodd" d="M26.16 69.4501V52.3201C26.16 50.8201 24.96 49.6201 23.46 49.6201C21.96 49.6201 20.76 50.8201 20.76 52.3201V69.4501C20.76 70.9501 21.96 72.1501 23.46 72.1501C24.96 72.1501 26.16 70.9501 26.16 69.4501Z" fill="#CE0E2D"/>
<path fill-rule="evenodd" clip-rule="evenodd" d="M42.5399 69.4501V52.3201C42.5399 50.8201 41.3399 49.6201 39.8399 49.6201C38.3399 49.6201 37.1399 50.8201 37.1399 52.3201V69.4501C37.1399 70.9501 38.3399 72.1501 39.8399 72.1501C41.3399 72.1501 42.5399 70.9501 42.5399 69.4501Z" fill="#CE0E2D"/>
<path fill-rule="evenodd" clip-rule="evenodd" d="M58.89 69.4501V52.3201C58.89 50.8201 57.69 49.6201 56.19 49.6201C54.69 49.6201 53.49 50.8201 53.49 52.3201V69.4501C53.49 70.9501 54.69 72.1501 56.19 72.1501C57.69 72.1501 58.89 70.9501 58.89 69.4501Z" fill="#CE0E2D"/>
<path fill-rule="evenodd" clip-rule="evenodd" d="M75.2401 69.4501V52.3201C75.2401 50.8201 74.0401 49.6201 72.5401 49.6201C71.0401 49.6201 69.8401 50.8201 69.8401 52.3201V69.4501C69.8401 70.9501 71.0401 72.1501 72.5401 72.1501C74.0401 72.1501 75.2401 70.9501 75.2401 69.4501Z" fill="#CE0E2D"/>
<path fill-rule="evenodd" clip-rule="evenodd" d="M18 80.6998H78C79.5 80.6998 80.7 79.4998 80.7 77.9998C80.7 76.4998 79.5 75.2998 78 75.2998H18C16.5 75.2998 15.3 76.4998 15.3 77.9998C15.3 79.4998 16.5 80.6998 18 80.6998Z" fill="#272C34"/>
</g>
<defs>
<clipPath id="clip0_3221_4458">
<rect width="72" height="72" fill="white" transform="translate(12 12)"/>
</clipPath>
</defs>
</svg>
