<svg xmlns="http://www.w3.org/2000/svg" width="16" height="16" viewBox="0 0 16 16">
    <defs>
        <clipPath id="bklw2zjp4a">
            <path data-name="Rectangle 21056" transform="translate(-113 1032)" style="fill:none" d="M0 0h16v16H0z"/>
        </clipPath>
    </defs>
    <g data-name="Mask Group 24930" transform="translate(113 -1032)" style="clip-path:url(#bklw2zjp4a)">
        <g data-name="Group 66388">
            <path data-name="Path 15511" d="M168.182 25.616a1.016 1.016 0 0 1-.3-.046.363.363 0 0 1-.105.035 2.771 2.771 0 0 0-.491.132l4.584 4.379a1 1 0 0 1 .27 1.005 1.576 1.576 0 0 1-1.058 1.081 1.154 1.154 0 0 1-.27.034.936.936 0 0 1-.69-.3l-4.43-4.667a2.779 2.779 0 0 0-.163.534 1.023 1.023 0 0 1-.216 1.117l-.668.67a.994.994 0 0 1-.717.3 1.006 1.006 0 0 1-.717-.3l-2.543-2.553a1.021 1.021 0 0 1 0-1.438l.668-.67a1.033 1.033 0 0 1 1.056-.233h.025a2.761 2.761 0 0 0 2.273-2.296 1.024 1.024 0 0 1 .232-1.075l.668-.67a1.014 1.014 0 0 1 1.433 0l2.544 2.553a1.023 1.023 0 0 1 0 1.438l-.668.67a1.006 1.006 0 0 1-.717.3zm-2.112 1 4.569 4.814a.231.231 0 0 0 .255.064.849.849 0 0 0 .54-.561.27.27 0 0 0-.067-.3l-4.755-4.533a2.789 2.789 0 0 0-.542.523zm-.818-3.523 1.907 1.915a3.5 3.5 0 0 0-2.2 2.123L163.1 25.26a3.5 3.5 0 0 0 2.156-2.162zm1.05-2.019a.292.292 0 0 0-.206.087l-.668.67a.3.3 0 0 0 0 .418l2.544 2.553a.3.3 0 0 0 .413 0l.668-.67a.3.3 0 0 0 0-.414l-2.543-2.553a.281.281 0 0 0-.206-.09zm-4.46 4.36a.289.289 0 0 1 .413 0l2.544 2.553a.282.282 0 0 1 .086.207.288.288 0 0 1-.086.207l-.668.67a.293.293 0 0 1-.413 0l-2.544-2.553a.281.281 0 0 1-.086-.207.288.288 0 0 1 .086-.207z" transform="translate(-270.691 1013.639)" style="fill-rule:evenodd;fill:#FFF"/>
            <path data-name="Path 15512" d="M135.528 425.849h-6.757a.384.384 0 0 1 0-.769h6.757a.384.384 0 0 1 0 .769z" transform="translate(-239.607 619.519)" style="fill:#FFF"/>
            <path data-name="Path 15513" d="M100.931 475.529h8.522a.384.384 0 0 0 0-.769h-8.522a.384.384 0 0 0 0 .769z" transform="translate(-212.547 571.231)" style="fill:#FFF"/>
        </g>
    </g>
</svg>
