<svg width="96" height="96" viewBox="0 0 96 96" fill="none" xmlns="http://www.w3.org/2000/svg">
<g clip-path="url(#clip0_1812_2453)">
<path d="M69.3 51C66.6 51.9 66 54.6 65.4 56.4C65.4 56.7 65.4 56.7 65.1 57C64.8 56.7 64.5 56.4 64.2 56.4C62.7 54.9 60.6 53.1 57.9 52.8C54.3 52.2 52.8 55.2 51.6 57C50.7 58.8 49.5 60.6 47.1 61.8C45.9 62.4 44.7 62.7 43.5 63C42 63.3 40.8 65.1 41.4 66.6C41.7 68.1 42.9 69 44.4 69C44.7 69 45 69 45 69C46.5 68.7 48.3 68.1 49.8 67.2C53.7 65.1 55.5 62.1 56.7 60C57 59.7 57.3 59.1 57.3 58.8C57.9 59.1 59.1 60 59.7 60.9C61.5 62.4 63.6 64.5 66.3 63.6C69 62.7 69.9 60 70.5 58.2C70.5 57.9 70.5 57.6 70.8 57.3C71.4 57.9 72.9 59.1 75 61.8C75.9 63 78 63.3 79.2 62.4C80.4 61.5 80.7 59.4 79.8 58.2C77.1 53.7 73.2 49.8 69.3 51Z" fill="#CE0E2D"/>
<path d="M10 23C10 21.8954 10.8954 21 12 21H84C85.1046 21 86 21.8954 86 23V35H10V23Z" fill="#D1D5DB"/>
<path d="M36 60C36 61.5 34.8 63 33 63H21C19.2 63 18 61.5 18 60C18 58.5 19.5 57 21 57H33C34.5 57 36 58.5 36 60ZM21 51H45C46.5 51 48 49.5 48 48C48 46.5 46.8 45 45 45H21C19.2 45 18 46.5 18 48C18 49.5 19.2 51 21 51ZM90 27V69C90 74.1 86.1 78 81 78H15C9.9 78 6 74.1 6 69V27C6 21.9 9.9 18 15 18H81C86.1 18 90 21.9 90 27ZM12 27V33H84V27C84 25.2 82.8 24 81 24H15C13.2 24 12 25.2 12 27ZM84 69V39H12V69C12 70.8 13.2 72 15 72H81C82.8 72 84 70.8 84 69Z" fill="#272C34"/>
</g>
<defs>
<clipPath id="clip0_1812_2453">
<rect width="96" height="96" fill="white"/>
</clipPath>
</defs>
</svg>
