<svg id="Filter" xmlns="http://www.w3.org/2000/svg" xmlns:xlink="http://www.w3.org/1999/xlink" width="18" height="18" viewBox="0 0 18 18">
  <defs>
    <clipPath id="clip-path">
      <rect id="Rectangle_1511" data-name="Rectangle 1511" width="18" height="18" fill="none"/>
    </clipPath>
  </defs>
  <g id="Group_5487" data-name="Group 5487" clip-path="url(#clip-path)">
    <g id="Group_11586" data-name="Group 11586" transform="translate(2.25 1.5)">
      <path id="Path_3941" data-name="Path 3941" d="M21.788,9.638H20.221a2.118,2.118,0,0,0-3.877,0H9.985a.846.846,0,0,0-.843.843v.025a.846.846,0,0,0,.843.844h6.36a2.118,2.118,0,0,0,3.877,0h1.567a.846.846,0,0,0,.844-.844V10.48a.846.846,0,0,0-.844-.843m-3.5,1.659a.8.8,0,1,1,.8-.8.8.8,0,0,1-.8.8" transform="translate(-9.141 -8.374)" fill="#404040"/>
      <path id="Path_3942" data-name="Path 3942" d="M21.788,15.14H13.2a2.117,2.117,0,0,0-4.053.752c0,.03,0,.06,0,.091v.025c0,.03,0,.061,0,.091a2.117,2.117,0,0,0,4.053.751h8.588a.846.846,0,0,0,.844-.843v-.025a.846.846,0,0,0-.844-.844M11.261,16.8a.8.8,0,1,1,.8-.8.8.8,0,0,1-.8.8" transform="translate(-9.141 -8.465)" fill="#404040"/>
      <path id="Path_3943" data-name="Path 3943" d="M21.788,20.581H18.1a2.118,2.118,0,0,0-3.877,0H9.984a.845.845,0,0,0-.843.843v.025a.846.846,0,0,0,.843.843h4.24a2.118,2.118,0,0,0,3.877,0h3.687a.846.846,0,0,0,.843-.843v-.025a.845.845,0,0,0-.843-.843m-5.625,1.634a.779.779,0,1,1,.78-.78.78.78,0,0,1-.78.78" transform="translate(-9.141 -8.555)" fill="#404040"/>
    </g>
  </g>
</svg>
